HIERARCHY
ROOT Hips
{
	OFFSET 0.000000 0.000000 0.000000
	CHANNELS 6 Xposition Yposition Zposition Zrotation Yrotation Xrotation 
	JOINT LowerBack
	{
		OFFSET 0.000000 0.000000 0.000000
		CHANNELS 3 Zrotation Yrotation Xrotation
		JOINT Spine
		{
			OFFSET 0.028270 2.035590 -0.193380
			CHANNELS 3 Zrotation Yrotation Xrotation
			JOINT Spine1
			{
				OFFSET 0.056720 2.048850 -0.042750
				CHANNELS 3 Zrotation Yrotation Xrotation
				JOINT Neck
				{
					OFFSET 0.000000 0.000000 0.000000
					CHANNELS 3 Zrotation Yrotation Xrotation
					JOINT Neck1
					{
						OFFSET -0.054170 1.746240 0.172020
						CHANNELS 3 Zrotation Yrotation Xrotation
						JOINT Head
						{
							OFFSET 0.104070 1.761360 -0.123970
							CHANNELS 3 Zrotation Yrotation Xrotation
							End Site
							{
								OFFSET 0.000000 0.000000 0.000000
							}
						}
					}
				}
				JOINT LeftShoulder
				{
					OFFSET 0.000000 0.000000 0.000000
					CHANNELS 3 Zrotation Yrotation Xrotation
					JOINT LeftArm
					{
						OFFSET 3.362410 1.200890 -0.311210
						CHANNELS 3 Zrotation Yrotation Xrotation
						JOINT LeftForeArm
						{
							OFFSET 4.983000 -0.000000 -0.000000
							CHANNELS 3 Zrotation Yrotation Xrotation
							JOINT LeftHand
							{
								OFFSET 3.483560 -0.000000 -0.000000
								CHANNELS 3 Zrotation Yrotation Xrotation
								JOINT LeftFingerBase
								{
									OFFSET 0.000000 0.000000 0.000000
									CHANNELS 3 Zrotation Yrotation Xrotation
									JOINT LeftHandIndex1
									{
										OFFSET 0.715260 -0.000000 -0.000000
										CHANNELS 3 Zrotation Yrotation Xrotation
										End Site
										{
											OFFSET 0.000000 0.000000 0.000000
										}
									}
								}
								JOINT LThumb
								{
									OFFSET 0.000000 0.000000 0.000000
									CHANNELS 3 Zrotation Yrotation Xrotation
									End Site
									{
										OFFSET 0.000000 0.000000 0.000000
									}
								}
							}
						}
					}
				}
				JOINT RightShoulder
				{
					OFFSET 0.000000 0.000000 0.000000
					CHANNELS 3 Zrotation Yrotation Xrotation
					JOINT RightArm
					{
						OFFSET -3.136600 1.374050 -0.404650
						CHANNELS 3 Zrotation Yrotation Xrotation
						JOINT RightForeArm
						{
							OFFSET -5.241900 -0.000000 -0.000000
							CHANNELS 3 Zrotation Yrotation Xrotation
							JOINT RightHand
							{
								OFFSET -3.444170 -0.000000 -0.000000
								CHANNELS 3 Zrotation Yrotation Xrotation
								JOINT RightFingerBase
								{
									OFFSET 0.000000 0.000000 0.000000
									CHANNELS 3 Zrotation Yrotation Xrotation
									JOINT RightHandIndex1
									{
										OFFSET -0.622530 -0.000000 -0.000000
										CHANNELS 3 Zrotation Yrotation Xrotation
										End Site
										{
											OFFSET 0.000000 0.000000 0.000000
										}
									}
								}
								JOINT RThumb
								{
									OFFSET 0.000000 0.000000 0.000000
									CHANNELS 3 Zrotation Yrotation Xrotation
									End Site
									{
										OFFSET 0.000000 0.000000 0.000000
									}
								}
							}
						}
					}
				}
			}
		}
	}
}
}
MOTION
Frames: 17
Frame Time: 0.008333
-11.079578 17.094094 -1.485826 135.730795 86.662105 160.924129 4.581748 -1.646059 3.327842 0.087159 -1.809500 -2.221989 -6.880679 -1.828653 0.031741 13.637448 0.781180 3.403242 -4.296943 -0.381480 2.681305 0.000000 0.000000 0.000000 -1.597441 -4.597629 0.589255 -58.834424 -30.801119 12.062383 -1.125348 -69.407225 -0.059952 10.012188 -3.325222 -0.335523 -0.223132 0.441502 -0.000000 0.000000 0.000000 0.000000 0.000000 0.000000 0.000000 21.279080 -1.488193 0.944615 56.530015 13.054665 6.059203 2.120972 45.041626 0.005994 -0.472584 9.268695 -0.041524 0.038632 -0.143534 -0.000000 0.000000 0.000000 0.000000 0.000000 0.000000 0.000000 
-10.888234 17.075641 -1.463725 140.726727 86.838363 165.595051 5.146250 -1.577295 3.410496 0.191203 -1.762429 -2.219715 -6.912225 -1.784502 -0.003505 13.710696 1.165842 3.591006 -4.353804 -0.384854 2.728832 0.000000 0.000000 0.000000 -1.859430 -4.614626 0.583751 -58.883353 -29.986645 11.505962 -1.126074 -69.422065 -0.060506 10.247907 -3.544301 -0.363313 -0.224179 0.439938 -0.000000 0.000000 0.000000 0.000000 0.000000 0.000000 0.000000 21.554061 -1.260490 0.924882 56.634455 13.510198 5.319854 2.180703 43.427915 0.005818 -0.736593 9.650469 -0.066038 0.039826 -0.139678 -0.000000 0.000000 0.000000 0.000000 0.000000 0.000000 0.000000 
-10.698862 17.063258 -1.441138 146.849079 87.018135 171.379974 5.715029 -1.517383 3.529735 0.294248 -1.722523 -2.212036 -6.940170 -1.748325 -0.046133 13.813565 1.616578 3.790715 -4.400121 -0.387563 2.779114 0.000000 0.000000 0.000000 -2.081965 -4.628955 0.576157 -59.037303 -29.083509 10.933721 -1.132124 -69.280341 -0.061358 10.563048 -3.760361 -0.394511 -0.225493 0.436812 -0.000000 0.000000 0.000000 0.000000 0.000000 0.000000 0.000000 21.811647 -0.967714 0.907654 56.820053 14.027661 4.441762 2.247006 41.545881 0.005680 -0.979988 10.008271 -0.090055 0.040737 -0.135194 -0.000000 0.000000 0.000000 0.000000 0.000000 0.000000 0.000000 
-10.511604 17.056781 -1.417775 153.702471 87.194107 177.891709 6.255032 -1.462170 3.679813 0.389336 -1.684870 -2.197045 -6.963443 -1.714720 -0.084214 13.944551 2.074934 3.980119 -4.437184 -0.389571 2.826247 0.000000 0.000000 0.000000 -2.259825 -4.630363 0.561494 -59.289859 -28.123349 10.363001 -1.143103 -68.967669 -0.062464 10.955673 -3.961552 -0.428319 -0.226917 0.431865 -0.000000 0.000000 0.000000 0.000000 0.000000 0.000000 0.000000 22.059909 -0.665238 0.894554 57.080670 14.677564 3.464577 2.321396 39.371923 0.005586 -1.234250 10.323144 -0.116274 0.041881 -0.130243 -0.000000 0.000000 0.000000 0.000000 0.000000 0.000000 0.000000 
-10.326443 17.055812 -1.393391 160.591161 87.350617 -175.560114 6.727901 -1.411997 3.853241 0.470277 -1.648889 -2.176312 -6.979401 -1.683186 -0.117039 14.102169 2.532473 4.153563 -4.462923 -0.390826 2.868966 0.000000 0.000000 0.000000 -2.394502 -4.621494 0.542311 -59.626312 -27.125370 9.810356 -1.158995 -68.471808 -0.063737 11.417713 -4.137892 -0.463639 -0.228329 0.424979 -0.000000 0.000000 0.000000 0.000000 0.000000 0.000000 0.000000 22.290147 -0.353482 0.885619 57.424629 15.440170 2.352335 2.400333 36.934730 0.005504 -1.499152 10.567010 -0.143892 0.043184 -0.125100 -0.000000 0.000000 0.000000 0.000000 0.000000 0.000000 0.000000 
-10.143372 17.059729 -1.367646 166.623999 87.455802 -169.864904 7.103270 -1.374796 4.039028 0.534054 -1.621592 -2.154068 -6.984898 -1.661167 -0.151854 14.286633 3.012954 4.317497 -4.473145 -0.391283 2.909423 0.000000 0.000000 0.000000 -2.491321 -4.619003 0.526895 -60.027196 -26.099138 9.292826 -1.180058 -67.783006 -0.065055 11.935087 -4.281235 -0.498870 -0.229625 0.416190 -0.000000 0.000000 0.000000 0.000000 0.000000 0.000000 0.000000 22.484533 -0.000547 0.879501 57.866679 16.233082 1.013054 2.476015 34.310272 0.005362 -1.752046 10.706533 -0.169812 0.044180 -0.120099 -0.000000 0.000000 0.000000 0.000000 0.000000 0.000000 0.000000 
-9.962122 17.067908 -1.340237 171.193016 87.483463 -165.626365 7.379822 -1.358238 4.225691 0.582289 -1.610655 -2.129808 -6.979634 -1.655934 -0.179200 14.492101 3.471083 4.456060 -4.470075 -0.391026 2.943405 0.000000 0.000000 0.000000 -2.557223 -4.620180 0.516691 -60.473107 -25.083956 8.836406 -1.206969 -66.887921 -0.066248 12.487437 -4.387988 -0.532610 -0.230666 0.405582 0.000000 0.000000 0.000000 0.000000 0.000000 0.000000 0.000000 22.649874 0.345343 0.874528 58.389780 17.090817 -0.520908 2.545458 31.520270 0.005122 -2.028429 10.739433 -0.196634 0.045176 -0.115523 -0.000000 0.000000 0.000000 0.000000 0.000000 0.000000 0.000000 
-9.782541 17.079692 -1.310885 174.149395 87.429848 -162.988204 7.573809 -1.361138 4.401849 0.618374 -1.615795 -2.106751 -6.964003 -1.667273 -0.203280 14.712966 3.919349 4.573216 -4.452368 -0.390084 2.972227 0.000000 0.000000 0.000000 -2.603138 -4.632637 0.517677 -60.942968 -24.095613 8.459873 -1.240223 -65.780275 -0.067131 13.049669 -4.456084 -0.563062 -0.231259 0.393316 0.000000 0.000000 0.000000 0.000000 0.000000 0.000000 0.000000 22.774669 0.703574 0.870179 58.989916 17.950746 -2.296049 2.601657 28.650022 0.004723 -2.325008 10.656090 -0.223055 0.045955 -0.111690 -0.000000 0.000000 0.000000 0.000000 0.000000 0.000000 0.000000 
-9.604310 17.094544 -1.279519 175.670132 87.310587 -161.765199 7.699699 -1.375664 4.558693 0.644220 -1.630190 -2.085697 -6.939586 -1.688068 -0.220902 14.940313 4.342216 4.663925 -4.422097 -0.388558 2.994503 0.000000 0.000000 0.000000 -2.640395 -4.651146 0.531018 -61.417161 -23.160841 8.183582 -1.280503 -64.454880 -0.067522 13.593392 -4.486962 -0.588522 -0.231207 0.379542 0.000000 0.000000 0.000000 0.000000 0.000000 0.000000 0.000000 22.860740 1.062863 0.866718 59.645818 18.802709 -4.280494 2.640526 25.763679 0.004134 -2.664957 10.466184 -0.250677 0.046643 -0.108822 -0.000000 0.000000 0.000000 0.000000 0.000000 0.000000 0.000000 
-9.427207 17.112139 -1.246186 176.066841 87.149335 -161.636502 7.765780 -1.391663 4.688901 0.660519 -1.644501 -2.068430 -6.907538 -1.708869 -0.233087 15.165246 4.743863 4.730308 -4.380401 -0.386545 3.010765 0.000000 0.000000 0.000000 -2.680635 -4.672942 0.558506 -61.878592 -22.294601 8.021417 -1.328624 -62.912251 -0.067247 14.088690 -4.483642 -0.607488 -0.230331 0.364427 0.000000 0.000000 0.000000 0.000000 0.000000 0.000000 0.000000 22.904976 1.433597 0.864793 60.339015 19.606547 -6.438399 2.657791 22.948072 0.003326 -3.057592 10.182321 -0.279298 0.047222 -0.107012 -0.000000 0.000000 0.000000 0.000000 0.000000 0.000000 0.000000 
-9.251002 17.132262 -1.211155 175.647910 86.970895 -162.283866 7.776734 -1.399466 4.787443 0.667341 -1.649613 -2.055309 -6.869281 -1.720303 -0.237097 15.378669 5.112936 4.770349 -4.330326 -0.384182 3.020272 0.000000 0.000000 0.000000 -2.734045 -4.690399 0.599381 -62.314982 -21.514751 7.984491 -1.385739 -61.154765 -0.066167 14.506089 -4.450559 -0.619058 -0.228505 0.348137 0.000000 0.000000 0.000000 0.000000 0.000000 0.000000 0.000000 22.912613 1.806395 0.864633 61.045323 20.351447 -8.661644 2.652879 20.275774 0.002302 -3.517770 9.825397 -0.309617 0.047843 -0.106164 -0.000000 0.000000 0.000000 0.000000 0.000000 0.000000 0.000000 
-9.075481 17.154956 -1.174780 174.668161 86.798601 -163.443203 7.735231 -1.390901 4.852329 0.664208 -1.637629 -2.044645 -6.827349 -1.714012 -0.224731 15.572579 5.410668 4.774547 -4.278156 -0.381692 3.020081 0.000000 0.000000 0.000000 -2.805361 -4.691800 0.649253 -62.721430 -20.842095 8.079477 -1.453079 -59.186345 -0.064183 14.818573 -4.394158 -0.622533 -0.225646 0.330820 0.000000 0.000000 0.000000 0.000000 0.000000 0.000000 0.000000 22.904531 2.137651 0.865770 61.734705 21.075728 -10.744710 2.631382 17.781244 0.001113 -4.066593 9.426987 -0.343039 0.048911 -0.106008 -0.000000 0.000000 0.000000 0.000000 0.000000 0.000000 0.000000 
-8.900625 17.180309 -1.137612 173.320910 86.654274 -164.918149 7.650156 -1.360084 4.882283 0.652981 -1.603065 -2.041731 -6.780349 -1.685148 -0.214139 15.740377 5.716645 4.771391 -4.217966 -0.378983 3.018127 0.000000 0.000000 0.000000 -2.907998 -4.690232 0.715490 -63.088632 -20.247732 8.292915 -1.531629 -57.025563 -0.061300 15.002987 -4.315311 -0.617209 -0.221705 0.312701 0.000000 0.000000 0.000000 0.000000 0.000000 0.000000 0.000000 22.843634 2.518983 0.867808 62.433313 21.635138 -12.704371 2.592121 15.608273 -0.000196 -4.617483 8.978927 -0.370756 0.049812 -0.106298 -0.000000 0.000000 0.000000 0.000000 0.000000 0.000000 0.000000 
-8.726380 17.208539 -1.100108 171.706078 86.554866 -166.606692 7.526452 -1.303819 4.881170 0.634059 -1.542681 -2.044923 -6.729869 -1.630237 -0.201934 15.875962 6.007009 4.757722 -4.154070 -0.376214 3.013299 0.000000 0.000000 0.000000 -3.042176 -4.683897 0.794109 -63.418119 -19.728025 8.611263 -1.621820 -54.689791 -0.057555 15.040854 -4.216969 -0.602986 -0.216653 0.293933 0.000000 0.000000 0.000000 0.000000 0.000000 0.000000 0.000000 22.742132 2.920000 0.869220 63.135064 22.063702 -14.356149 2.545763 13.770162 -0.001494 -5.141201 8.504765 -0.390973 0.050794 -0.106684 -0.000000 0.000000 0.000000 0.000000 0.000000 0.000000 0.000000 
-8.552736 17.239830 -1.062755 169.871354 86.513070 -168.463576 7.368838 -1.221841 4.857127 0.607773 -1.455928 -2.050202 -6.678055 -1.548309 -0.179228 15.974292 6.242454 4.723281 -4.091970 -0.373522 3.002445 0.000000 0.000000 0.000000 -3.206660 -4.652701 0.879658 -63.715748 -19.300426 9.029737 -1.724908 -52.185956 -0.053039 14.921033 -4.102876 -0.580260 -0.210619 0.274677 0.000000 0.000000 0.000000 0.000000 0.000000 0.000000 0.000000 22.619423 3.292270 0.866700 63.836368 22.434233 -15.518901 2.505531 12.229966 -0.002621 -5.601794 8.038875 -0.402688 0.052126 -0.106894 -0.000000 0.000000 0.000000 0.000000 0.000000 0.000000 0.000000 
-8.379801 17.274344 -1.025912 167.824310 86.535491 -170.491799 7.186455 -1.115722 4.818322 0.576271 -1.344232 -2.061602 -6.623244 -1.441559 -0.167173 16.034837 6.485167 4.695874 -4.027353 -0.370909 2.993437 0.000000 0.000000 0.000000 -3.401904 -4.646338 0.976657 -63.978355 -18.879582 9.488760 -1.837706 -49.575453 -0.047931 14.627222 -3.962033 -0.547734 -0.203399 0.255128 0.000000 0.000000 0.000000 0.000000 0.000000 0.000000 0.000000 22.451698 3.699762 0.861483 64.565892 22.657488 -16.255697 2.473876 11.057539 -0.003461 -5.886657 7.566002 -0.398498 0.053116 -0.106770 -0.000000 0.000000 0.000000 0.000000 0.000000 0.000000 0.000000 
-8.207609 17.311897 -0.989710 165.444950 86.617698 -172.815165 6.977794 -0.993210 4.772755 0.539366 -1.214861 -2.070742 -6.566787 -1.316283 -0.141166 16.052161 6.670516 4.646647 -3.965843 -0.368332 2.977920 0.000000 0.000000 0.000000 -3.618708 -4.579948 1.076603 -64.224420 -18.563027 10.036141 -1.965169 -46.810842 -0.042424 14.182908 -3.807735 -0.509004 -0.195786 0.235517 0.000000 0.000000 0.000000 0.000000 0.000000 0.000000 0.000000 22.261097 4.067557 0.844949 65.320941 22.875616 -16.410452 2.462642 10.121894 -0.003886 -6.004586 7.169349 -0.385405 0.054172 -0.106318 -0.000000 0.000000 0.000000 0.000000 0.000000 0.000000 0.000000 
